# xmcd
#
# Track frame offsets: 
#        150
#        13952
#        26027
#        39277
#        55127
#        68027
#        80877
#        96927
#        108552
#        123427
#        138552
#        151902
#        165027
#        178977
#
# Disc length: 2538 seconds
#
# Revision: 0
# Processed by: cddbd v1.5.2PL0 Copyright (c) Steve Scherf et al.
# Submitted via: ExactAudioCopyFreeDBPlugin 1.0
#
DISCID=ba09e80e
DTITLE=Dirk Schiefen - Traumland Melodien
DYEAR=1997
DGENRE=Instrumental
TTITLE0=Romanze in F
TTITLE1=Nimms leicht
TTITLE2=Heimatmelodie
TTITLE3=Sierra Madre
TTITLE4=Ich hab Dich so lieb
TTITLE5=Flotte Trompeten
TTITLE6=Bazi, mein Freund
TTITLE7=Im Abendrot der Berge
TTITLE8=Das letzte Lied (Amazing Grace)
TTITLE9=Tosselli Serenade
TTITLE10=Traumland Melodie
TTITLE11=Regenbogen Ballade
TTITLE12=Melodia Romantika
TTITLE13=Jugend musiziert
EXTD=
EXTT0=
EXTT1=
EXTT2=
EXTT3=
EXTT4=
EXTT5=
EXTT6=
EXTT7=
EXTT8=
EXTT9=
EXTT10=
EXTT11=
EXTT12=
EXTT13=
PLAYORDER=
